<svg xmlns="http://www.w3.org/2000/svg" data-name="Layer 1" viewBox="0 0 100 125" x="0px" y="0px"><title>Artboard 24</title><path d="M61,87.36v2.89a4.51,4.51,0,0,1-3.88,4.48l-.7,2.59a3.29,3.29,0,0,1-3.08,2.39h-7a3.11,3.11,0,0,1-3.09-2.39l-.7-2.59a4.51,4.51,0,0,1-3.88-4.48V87.36a2.78,2.78,0,0,1,2.79-2.79H58.36A2.83,2.83,0,0,1,61,87.36ZM46.32,4v9.55a3.68,3.68,0,0,0,7.36,0V4a3.68,3.68,0,0,0-7.36,0Zm-31,47.86A3.73,3.73,0,0,0,19,48.16a3.68,3.68,0,0,0-3.68-3.68H5.81a3.68,3.68,0,1,0,0,7.36Zm78.81-7.36H84.63a3.68,3.68,0,1,0,0,7.36h9.55a3.67,3.67,0,0,0,3.68-3.61,3.42,3.42,0,0,0-.92-2.59A3.73,3.73,0,0,0,94.18,44.48Zm-79.24,35a3.69,3.69,0,0,0,6.3,2.64L28,75.33A3.7,3.7,0,0,0,28,70a3.78,3.78,0,0,0-5.15,0l-6.8,6.8A3.72,3.72,0,0,0,14.95,79.46Zm69-65.24a3.78,3.78,0,0,0-5.29,0L71.88,21a3.72,3.72,0,0,0-1.11,2.64,3.76,3.76,0,0,0,1.18,2.7,4.17,4.17,0,0,0,2.63,1,3.7,3.7,0,0,0,2.59-1.09l6.77-6.77A3.7,3.7,0,0,0,83.94,14.22ZM22.83,26.28A3.7,3.7,0,1,0,28,21l-6.77-6.77A3.74,3.74,0,1,0,16,19.51ZM78.65,82.1a3.7,3.7,0,0,0,5.19-5.28l-6.67-6.77h0a3.79,3.79,0,0,0-5.29,0,3.7,3.7,0,0,0,0,5.29Zm-15.4-6.54A6.55,6.55,0,0,1,56.83,81H43a6.44,6.44,0,0,1-6.43-5.5,18,18,0,0,0-4.79-9.66A25.1,25.1,0,0,1,49.6,23.33h.19A25.11,25.11,0,0,1,68,65.9,17.61,17.61,0,0,0,63.25,75.56ZM52.74,65.41a1.66,1.66,0,0,0-1.66-1.66H46.82a1.66,1.66,0,0,0-1.66,1.66v2.77a1.66,1.66,0,0,0,1.66,1.66h4.26a1.66,1.66,0,0,0,1.66-1.66Zm8.45-18.89A9.25,9.25,0,0,0,58.1,39.2Q55,36.49,49.65,36.49a12.86,12.86,0,0,0-8.07,2.36,7.81,7.81,0,0,0-3,5.95,1.07,1.07,0,0,0,1,1.13l4.85.09a1.74,1.74,0,0,0,1.72-1.22,3.1,3.1,0,0,1,.89-1.5,3.62,3.62,0,0,1,2.53-.93,3.69,3.69,0,0,1,2.89,1.13,4.35,4.35,0,0,1,1,3,6,6,0,0,1-.87,3.23,7.33,7.33,0,0,1-2.38,2.35,16.69,16.69,0,0,0-4,3.64,7.09,7.09,0,0,0-1.07,3.45,1.18,1.18,0,0,0,1.18,1.27h5.26a1.18,1.18,0,0,0,1.18-1.05,5.86,5.86,0,0,1,.46-1.92,5.19,5.19,0,0,1,2-2,12,12,0,0,0,4.28-3.73A8.78,8.78,0,0,0,61.19,46.51Z"/><text x="0" y="115" fill="#000000" font-size="5px" font-weight="bold" font-family="'Helvetica Neue', Helvetica, Arial-Unicode, Arial, Sans-serif">Created by Gregor Črešnar</text><text x="0" y="120" fill="#000000" font-size="5px" font-weight="bold" font-family="'Helvetica Neue', Helvetica, Arial-Unicode, Arial, Sans-serif">from the Noun Project</text></svg>