<svg xmlns="http://www.w3.org/2000/svg" data-name="Layer 1" viewBox="0 0 100 125" x="0px" y="0px"><title>Artboard 13</title><path d="M41.82,35.87l10.3-7H63.59a3.83,3.83,0,0,0,3.83-3.83V6.22a3.83,3.83,0,0,0-3.83-3.83H37a3.83,3.83,0,0,0-3.83,3.83V25.06A3.83,3.83,0,0,0,37,28.89h3.62v6.34A.77.77,0,0,0,41.82,35.87Zm7.28-27.7h2.4a.5.5,0,0,1,.5.51l-.25,9.79a.44.44,0,0,1-.44.43h-2a.44.44,0,0,1-.44-.43l-.25-9.8A.5.5,0,0,1,49.09,8.17Zm-.5,13a.74.74,0,0,1,.75-.74h1.91a.75.75,0,0,1,.75.74v1.24a.75.75,0,0,1-.75.75H49.34a.74.74,0,0,1-.75-.75ZM95.35,97.61H4.65V89.49a6.49,6.49,0,0,1,3.68-5.21,30,30,0,0,1,5.39-2,58.24,58.24,0,0,0,8.55-3l.18-.11h0a2,2,0,0,0,.92-1.7V74c-9.1.08-11.78-3.82-11.78-3.82s5.2-.08,4.88-13.8,6-16,8.36-16.88C31.71,36.88,35.16,41,35.16,41c8-.74,10.15,8,9.18,17.86S48.8,70.33,48.8,70.33c-3.74,3.82-11.61,3.58-11.61,3.58v.88h0v2.63a2,2,0,0,0,.92,1.7h0l.22.14a26.14,26.14,0,0,0,3.4,1.41A102.94,102.94,0,0,1,52.55,74a116.79,116.79,0,0,0,5.92,12A.31.31,0,0,0,59,86c.55-1.58,2.21-5.7,4.67-5.49a.21.21,0,0,0,.13-.38c-2.06-1.64-7-5.65-8.89-7.9V66.6a13.86,13.86,0,0,1-1.73-4.72c-.66-.05-1.53-1-2.46-4.29-1.18-4.18-.11-5.06,1-5.09-.1-.36-.19-.72-.26-1.08h0a13.24,13.24,0,0,1,0-6,13,13,0,0,1,3.48-6.1,16.72,16.72,0,0,1,3.22-2.66,12.52,12.52,0,0,1,3.12-1.6h0a10.36,10.36,0,0,1,2.84-.54,11.71,11.71,0,0,1,7.13,1.51,8.86,8.86,0,0,1,3.47,3.23s5.77.41,3.82,12.12c-.07.36-.15.72-.26,1.08,1.09,0,2.21.85,1,5.09-.94,3.3-1.81,4.23-2.46,4.29a13.86,13.86,0,0,1-1.73,4.72V72.2c-1.9,2.25-6.83,6.26-8.89,7.9a.21.21,0,0,0,.13.38c2.46-.21,4.12,3.91,4.67,5.49a.31.31,0,0,0,.55.08,116.79,116.79,0,0,0,5.92-12A97.91,97.91,0,0,1,93.07,84.32a6.13,6.13,0,0,1,2.27,4.73Z"/><text x="0" y="115" fill="#000000" font-size="5px" font-weight="bold" font-family="'Helvetica Neue', Helvetica, Arial-Unicode, Arial, Sans-serif">Created by Gregor Črešnar</text><text x="0" y="120" fill="#000000" font-size="5px" font-weight="bold" font-family="'Helvetica Neue', Helvetica, Arial-Unicode, Arial, Sans-serif">from the Noun Project</text></svg>