<svg xmlns="http://www.w3.org/2000/svg" xmlns:xlink="http://www.w3.org/1999/xlink" version="1.1" x="0px" y="0px" viewBox="0 0 100 125" enable-background="new 0 0 100 100" xml:space="preserve"><path d="M84.1,15.4H71c-8,0-14.4,6.4-14.4,14.4c0,6.4,4.1,11.8,9.9,13.7v6.9c0,0.6,0.8,1,1.2,0.5l6.6-6.6h9.8  c8,0,14.4-6.4,14.4-14.4C98.5,21.9,92,15.4,84.1,15.4z M76.1,21.1h2.8c0.3,0,0.6,0.3,0.6,0.6l-0.3,11.5c0,0.3-0.2,0.5-0.5,0.5h-2.3  c-0.3,0-0.5-0.2-0.5-0.5l-0.3-11.5C75.5,21.4,75.8,21.1,76.1,21.1z M79.5,37.7c0,0.5-0.4,0.9-0.9,0.9h-2.2c-0.5,0-0.9-0.4-0.9-0.9  v-1.5c0-0.5,0.4-0.9,0.9-0.9h2.2c0.5,0,0.9,0.4,0.9,0.9V37.7z M37,71.5l3.3,13.6h-1h-8.8h-1l3.3-13.6l-2.3-3.6l4.3-5.5l4.3,5.5  L37,71.5z M68.4,75.8v9.4H40.3l6.4-27C49.2,59.5,57.9,64,66,70.6C67.5,71.9,68.4,73.8,68.4,75.8z M23.2,58.2l6.4,27H1.5v-9.4  c0-2,0.9-3.9,2.4-5.1C12,64,20.7,59.5,23.2,58.2z M46.1,56.5L35,62.5l-11.1-5.9V51c-1-1.7-1.6-3.6-1.9-5.2c-0.7-0.1-1.7-1.1-2.7-4.7  c-1.4-5,0.1-5.7,1.4-5.6c-0.2-0.7-0.4-1.4-0.5-2h0c-0.5-2.3-0.6-4.5,0-6.6c0.6-2.8,2.1-5,3.8-6.7c1.1-1.1,2.3-2.1,3.5-2.9  c1-0.7,2.2-1.3,3.4-1.8l0,0c1-0.3,2-0.5,3.1-0.6c3.4-0.3,6,0.6,7.9,1.7c2.8,1.5,3.8,3.6,3.8,3.6s6.4,0.5,4.2,13.4  c-0.1,0.7-0.3,1.4-0.5,2c1.3-0.1,2.8,0.6,1.4,5.6c-1,3.6-2,4.7-2.7,4.7c-0.3,1.6-0.9,3.4-1.9,5.1V56.5z"/><text x="0" y="115" fill="#000000" font-size="5px" font-weight="bold" font-family="'Helvetica Neue', Helvetica, Arial-Unicode, Arial, Sans-serif">Created by Gregor Črešnar</text><text x="0" y="120" fill="#000000" font-size="5px" font-weight="bold" font-family="'Helvetica Neue', Helvetica, Arial-Unicode, Arial, Sans-serif">from the Noun Project</text></svg>